<mxfile host="app.diagrams.net" agent="Mozilla/5.0 (Windows NT 10.0; Win64; x64) AppleWebKit/537.36 (KHTML, like Gecko) Chrome/134.0.0.0 YaBrowser/25.4.0.0 Safari/537.36" version="27.0.5">
  <diagram name="Page-1" id="58cdce13-f638-feb5-8d6f-7d28b1aa9fa0">
    <mxGraphModel dx="2066" dy="1974" grid="1" gridSize="10" guides="1" tooltips="1" connect="1" arrows="1" fold="1" page="1" pageScale="1" pageWidth="1100" pageHeight="850" background="none" math="0" shadow="0">
      <root>
        <mxCell id="0" />
        <mxCell id="1" parent="0" />
        <mxCell id="q7oZGvzG7qB7lyxZG7U--55" style="edgeStyle=orthogonalEdgeStyle;rounded=0;orthogonalLoop=1;jettySize=auto;html=1;exitX=0.5;exitY=1;exitDx=0;exitDy=0;entryX=0.5;entryY=0;entryDx=0;entryDy=0;strokeColor=light-dark(#ff0000, #ededed);" parent="1" source="q7oZGvzG7qB7lyxZG7U--4" target="q7oZGvzG7qB7lyxZG7U--51" edge="1">
          <mxGeometry relative="1" as="geometry" />
        </mxCell>
        <mxCell id="q7oZGvzG7qB7lyxZG7U--4" value="" style="ellipse;html=1;shape=startState;fillColor=#000000;strokeColor=#ff0000;" parent="1" vertex="1">
          <mxGeometry x="490" y="-160" width="30" height="30" as="geometry" />
        </mxCell>
        <mxCell id="q7oZGvzG7qB7lyxZG7U--61" style="edgeStyle=orthogonalEdgeStyle;rounded=0;orthogonalLoop=1;jettySize=auto;html=1;entryX=0.5;entryY=0;entryDx=0;entryDy=0;strokeColor=light-dark(#ff0000, #ededed);" parent="1" source="q7oZGvzG7qB7lyxZG7U--6" target="q7oZGvzG7qB7lyxZG7U--57" edge="1">
          <mxGeometry relative="1" as="geometry" />
        </mxCell>
        <mxCell id="q7oZGvzG7qB7lyxZG7U--62" value="JWT-токен" style="edgeLabel;html=1;align=center;verticalAlign=middle;resizable=0;points=[];" parent="q7oZGvzG7qB7lyxZG7U--61" vertex="1" connectable="0">
          <mxGeometry x="0.32" y="-3" relative="1" as="geometry">
            <mxPoint x="3" y="-6" as="offset" />
          </mxGeometry>
        </mxCell>
        <mxCell id="q7oZGvzG7qB7lyxZG7U--6" value="Авторизация" style="swimlane;fontStyle=1;align=center;verticalAlign=middle;childLayout=stackLayout;horizontal=1;startSize=30;horizontalStack=0;resizeParent=0;resizeLast=1;container=0;fontColor=#000000;collapsible=0;rounded=1;arcSize=30;strokeColor=#ff0000;fillColor=#ffffc0;swimlaneFillColor=#ffffc0;dropTarget=0;" parent="1" vertex="1">
          <mxGeometry x="402.5" y="-30" width="205" height="70" as="geometry" />
        </mxCell>
        <mxCell id="q7oZGvzG7qB7lyxZG7U--7" value="entry/ввод данных авторизации&lt;br&gt;exit/закрытие формы авторизации" style="text;html=1;strokeColor=none;fillColor=none;align=center;verticalAlign=middle;spacingLeft=4;spacingRight=4;whiteSpace=wrap;overflow=hidden;rotatable=0;fontColor=#000000;" parent="q7oZGvzG7qB7lyxZG7U--6" vertex="1">
          <mxGeometry y="30" width="205" height="40" as="geometry" />
        </mxCell>
        <mxCell id="q7oZGvzG7qB7lyxZG7U--11" value="Выбор психолога" style="swimlane;fontStyle=1;align=center;verticalAlign=middle;childLayout=stackLayout;horizontal=1;startSize=30;horizontalStack=0;resizeParent=0;resizeLast=1;container=0;fontColor=#000000;collapsible=0;rounded=1;arcSize=30;strokeColor=#ff0000;fillColor=#ffffc0;swimlaneFillColor=#ffffc0;dropTarget=0;" parent="1" vertex="1">
          <mxGeometry x="377.5" y="230" width="255" height="70" as="geometry" />
        </mxCell>
        <mxCell id="q7oZGvzG7qB7lyxZG7U--12" value="entry/инициализация каталога психологов&lt;div&gt;do/пользователь выбирает специалиста&lt;/div&gt;" style="text;html=1;strokeColor=none;fillColor=none;align=center;verticalAlign=middle;spacingLeft=4;spacingRight=4;whiteSpace=wrap;overflow=hidden;rotatable=0;fontColor=#000000;" parent="q7oZGvzG7qB7lyxZG7U--11" vertex="1">
          <mxGeometry y="30" width="255" height="40" as="geometry" />
        </mxCell>
        <mxCell id="q7oZGvzG7qB7lyxZG7U--16" value="Запись на консультацию" style="swimlane;fontStyle=1;align=center;verticalAlign=middle;childLayout=stackLayout;horizontal=1;startSize=30;horizontalStack=0;resizeParent=0;resizeLast=1;container=0;fontColor=#000000;collapsible=0;rounded=1;arcSize=30;strokeColor=#ff0000;fillColor=#ffffc0;swimlaneFillColor=#ffffc0;dropTarget=0;" parent="1" vertex="1">
          <mxGeometry x="380" y="340" width="250" height="70" as="geometry" />
        </mxCell>
        <mxCell id="q7oZGvzG7qB7lyxZG7U--17" value="entry/инициализация страницы психолога&lt;br&gt;do/отправить заявку на запись" style="text;html=1;strokeColor=none;fillColor=none;align=center;verticalAlign=middle;spacingLeft=4;spacingRight=4;whiteSpace=wrap;overflow=hidden;rotatable=0;fontColor=#000000;" parent="q7oZGvzG7qB7lyxZG7U--16" vertex="1">
          <mxGeometry y="30" width="250" height="40" as="geometry" />
        </mxCell>
        <mxCell id="q7oZGvzG7qB7lyxZG7U--18" value="" style="edgeStyle=orthogonalEdgeStyle;html=1;verticalAlign=bottom;endArrow=open;endSize=8;strokeColor=#ff0000;rounded=0;entryX=0.505;entryY=0.4;entryDx=0;entryDy=0;entryPerimeter=0;" parent="1" source="q7oZGvzG7qB7lyxZG7U--16" target="q7oZGvzG7qB7lyxZG7U--24" edge="1">
          <mxGeometry relative="1" as="geometry">
            <mxPoint x="505" y="500" as="targetPoint" />
          </mxGeometry>
        </mxCell>
        <mxCell id="q7oZGvzG7qB7lyxZG7U--19" style="edgeStyle=orthogonalEdgeStyle;rounded=0;orthogonalLoop=1;jettySize=auto;html=1;exitX=0.5;exitY=1;exitDx=0;exitDy=0;entryX=0.5;entryY=0;entryDx=0;entryDy=0;fontColor=light-dark(#ff0000, #ededed);strokeColor=light-dark(#ff0000, #ededed);" parent="1" source="q7oZGvzG7qB7lyxZG7U--12" target="q7oZGvzG7qB7lyxZG7U--16" edge="1">
          <mxGeometry relative="1" as="geometry" />
        </mxCell>
        <mxCell id="q7oZGvzG7qB7lyxZG7U--20" value="Выбранный специалист" style="edgeLabel;html=1;align=center;verticalAlign=middle;resizable=0;points=[];" parent="q7oZGvzG7qB7lyxZG7U--19" vertex="1" connectable="0">
          <mxGeometry x="-0.2" y="3" relative="1" as="geometry">
            <mxPoint as="offset" />
          </mxGeometry>
        </mxCell>
        <mxCell id="q7oZGvzG7qB7lyxZG7U--29" style="edgeStyle=orthogonalEdgeStyle;rounded=0;orthogonalLoop=1;jettySize=auto;html=1;entryX=0.5;entryY=0;entryDx=0;entryDy=0;fontColor=light-dark(#ff0000, #ededed);strokeColor=light-dark(#ff0000, #ededed);" parent="1" source="q7oZGvzG7qB7lyxZG7U--24" target="q7oZGvzG7qB7lyxZG7U--26" edge="1">
          <mxGeometry relative="1" as="geometry" />
        </mxCell>
        <mxCell id="q7oZGvzG7qB7lyxZG7U--33" style="edgeStyle=orthogonalEdgeStyle;rounded=0;orthogonalLoop=1;jettySize=auto;html=1;strokeColor=light-dark(#ff0000, #ededed);" parent="1" source="q7oZGvzG7qB7lyxZG7U--24" target="q7oZGvzG7qB7lyxZG7U--30" edge="1">
          <mxGeometry relative="1" as="geometry" />
        </mxCell>
        <mxCell id="q7oZGvzG7qB7lyxZG7U--24" value="" style="shape=line;html=1;strokeWidth=6;strokeColor=#ff0000;" parent="1" vertex="1">
          <mxGeometry x="412.5" y="430" width="185" height="10" as="geometry" />
        </mxCell>
        <mxCell id="q7oZGvzG7qB7lyxZG7U--26" value="Отмена записи" style="swimlane;fontStyle=1;align=center;verticalAlign=middle;childLayout=stackLayout;horizontal=1;startSize=30;horizontalStack=0;resizeParent=0;resizeLast=1;container=0;fontColor=#000000;collapsible=0;rounded=1;arcSize=30;strokeColor=#ff0000;fillColor=#ffffc0;swimlaneFillColor=#ffffc0;dropTarget=0;" parent="1" vertex="1">
          <mxGeometry x="330" y="490" width="160" height="60" as="geometry" />
        </mxCell>
        <mxCell id="q7oZGvzG7qB7lyxZG7U--27" value="do/пользователь отменяет запись" style="text;html=1;strokeColor=none;fillColor=none;align=center;verticalAlign=middle;spacingLeft=4;spacingRight=4;whiteSpace=wrap;overflow=hidden;rotatable=0;fontColor=#000000;" parent="q7oZGvzG7qB7lyxZG7U--26" vertex="1">
          <mxGeometry y="30" width="160" height="30" as="geometry" />
        </mxCell>
        <mxCell id="q7oZGvzG7qB7lyxZG7U--30" value="Принятие записи &#xa;психологом" style="swimlane;fontStyle=1;align=center;verticalAlign=middle;childLayout=stackLayout;horizontal=1;startSize=30;horizontalStack=0;resizeParent=0;resizeLast=1;container=0;fontColor=#000000;collapsible=0;rounded=1;arcSize=30;strokeColor=#ff0000;fillColor=#ffffc0;swimlaneFillColor=#ffffc0;dropTarget=0;" parent="1" vertex="1">
          <mxGeometry x="520" y="490" width="160" height="60" as="geometry" />
        </mxCell>
        <mxCell id="q7oZGvzG7qB7lyxZG7U--31" value="do/психолог дает ответ по заявке" style="text;html=1;strokeColor=none;fillColor=none;align=center;verticalAlign=middle;spacingLeft=4;spacingRight=4;whiteSpace=wrap;overflow=hidden;rotatable=0;fontColor=#000000;" parent="q7oZGvzG7qB7lyxZG7U--30" vertex="1">
          <mxGeometry y="30" width="160" height="30" as="geometry" />
        </mxCell>
        <mxCell id="q7oZGvzG7qB7lyxZG7U--78" style="edgeStyle=orthogonalEdgeStyle;rounded=0;orthogonalLoop=1;jettySize=auto;html=1;exitX=1;exitY=0.5;exitDx=0;exitDy=0;entryX=1;entryY=0.5;entryDx=0;entryDy=0;strokeColor=light-dark(#ff0000, #ededed);" parent="1" source="q7oZGvzG7qB7lyxZG7U--35" target="q7oZGvzG7qB7lyxZG7U--75" edge="1">
          <mxGeometry relative="1" as="geometry">
            <Array as="points">
              <mxPoint x="720" y="615" />
              <mxPoint x="720" y="180" />
            </Array>
          </mxGeometry>
        </mxCell>
        <mxCell id="q7oZGvzG7qB7lyxZG7U--79" value="no" style="edgeLabel;html=1;align=center;verticalAlign=middle;resizable=0;points=[];" parent="q7oZGvzG7qB7lyxZG7U--78" vertex="1" connectable="0">
          <mxGeometry x="-0.9351" y="1" relative="1" as="geometry">
            <mxPoint x="-17" y="-14" as="offset" />
          </mxGeometry>
        </mxCell>
        <mxCell id="q7oZGvzG7qB7lyxZG7U--35" value="Заявка&lt;br&gt;принята?" style="rhombus;whiteSpace=wrap;html=1;fontColor=#000000;fillColor=#ffffc0;strokeColor=#ff0000;" parent="1" vertex="1">
          <mxGeometry x="545" y="590" width="110" height="50" as="geometry" />
        </mxCell>
        <mxCell id="q7oZGvzG7qB7lyxZG7U--37" value="yes" style="edgeStyle=orthogonalEdgeStyle;html=1;align=left;verticalAlign=top;endArrow=open;endSize=8;strokeColor=#ff0000;rounded=0;entryX=0.5;entryY=0;entryDx=0;entryDy=0;" parent="1" source="q7oZGvzG7qB7lyxZG7U--35" target="q7oZGvzG7qB7lyxZG7U--43" edge="1">
          <mxGeometry x="-1" relative="1" as="geometry">
            <mxPoint x="615" y="770" as="targetPoint" />
          </mxGeometry>
        </mxCell>
        <mxCell id="q7oZGvzG7qB7lyxZG7U--40" style="edgeStyle=orthogonalEdgeStyle;rounded=0;orthogonalLoop=1;jettySize=auto;html=1;exitX=0.5;exitY=1;exitDx=0;exitDy=0;entryX=0.5;entryY=0;entryDx=0;entryDy=0;strokeColor=light-dark(#ff0000, #ededed);" parent="1" source="q7oZGvzG7qB7lyxZG7U--31" target="q7oZGvzG7qB7lyxZG7U--35" edge="1">
          <mxGeometry relative="1" as="geometry" />
        </mxCell>
        <mxCell id="q7oZGvzG7qB7lyxZG7U--81" value="Результат по заявке" style="edgeLabel;html=1;align=center;verticalAlign=middle;resizable=0;points=[];" parent="q7oZGvzG7qB7lyxZG7U--40" vertex="1" connectable="0">
          <mxGeometry x="-0.1333" y="-1" relative="1" as="geometry">
            <mxPoint as="offset" />
          </mxGeometry>
        </mxCell>
        <mxCell id="q7oZGvzG7qB7lyxZG7U--43" value="Консультация" style="swimlane;fontStyle=1;align=center;verticalAlign=middle;childLayout=stackLayout;horizontal=1;startSize=30;horizontalStack=0;resizeParent=0;resizeLast=1;container=0;fontColor=#000000;collapsible=0;rounded=1;arcSize=30;strokeColor=#ff0000;fillColor=#ffffc0;swimlaneFillColor=#ffffc0;dropTarget=0;" parent="1" vertex="1">
          <mxGeometry x="500" y="680" width="200" height="70" as="geometry" />
        </mxCell>
        <mxCell id="q7oZGvzG7qB7lyxZG7U--44" value="do/пользователь и психолог созваниваются для консультации" style="text;html=1;strokeColor=none;fillColor=none;align=center;verticalAlign=middle;spacingLeft=4;spacingRight=4;whiteSpace=wrap;overflow=hidden;rotatable=0;fontColor=#000000;" parent="q7oZGvzG7qB7lyxZG7U--43" vertex="1">
          <mxGeometry y="30" width="200" height="40" as="geometry" />
        </mxCell>
        <mxCell id="q7oZGvzG7qB7lyxZG7U--46" value="Оплата консультации" style="swimlane;fontStyle=1;align=center;verticalAlign=middle;childLayout=stackLayout;horizontal=1;startSize=30;horizontalStack=0;resizeParent=0;resizeLast=1;container=0;fontColor=#000000;collapsible=0;rounded=1;arcSize=30;strokeColor=#ff0000;fillColor=#ffffc0;swimlaneFillColor=#ffffc0;dropTarget=0;" parent="1" vertex="1">
          <mxGeometry x="520" y="850" width="160" height="60" as="geometry" />
        </mxCell>
        <mxCell id="q7oZGvzG7qB7lyxZG7U--47" value="exit/запись статуса оплаты" style="text;html=1;strokeColor=none;fillColor=none;align=center;verticalAlign=middle;spacingLeft=4;spacingRight=4;whiteSpace=wrap;overflow=hidden;rotatable=0;fontColor=#000000;" parent="q7oZGvzG7qB7lyxZG7U--46" vertex="1">
          <mxGeometry y="30" width="160" height="30" as="geometry" />
        </mxCell>
        <mxCell id="q7oZGvzG7qB7lyxZG7U--48" value="" style="edgeStyle=orthogonalEdgeStyle;html=1;verticalAlign=bottom;endArrow=open;endSize=8;strokeColor=#ff0000;rounded=0;entryX=0.5;entryY=0;entryDx=0;entryDy=0;" parent="1" source="q7oZGvzG7qB7lyxZG7U--46" target="q7oZGvzG7qB7lyxZG7U--90" edge="1">
          <mxGeometry relative="1" as="geometry">
            <mxPoint x="600" y="980" as="targetPoint" />
          </mxGeometry>
        </mxCell>
        <mxCell id="q7oZGvzG7qB7lyxZG7U--91" value="Результат оплаты" style="edgeLabel;html=1;align=center;verticalAlign=middle;resizable=0;points=[];" parent="q7oZGvzG7qB7lyxZG7U--48" vertex="1" connectable="0">
          <mxGeometry relative="1" as="geometry">
            <mxPoint as="offset" />
          </mxGeometry>
        </mxCell>
        <mxCell id="q7oZGvzG7qB7lyxZG7U--56" style="edgeStyle=orthogonalEdgeStyle;rounded=0;orthogonalLoop=1;jettySize=auto;html=1;exitX=0.5;exitY=1;exitDx=0;exitDy=0;entryX=0.5;entryY=0;entryDx=0;entryDy=0;strokeColor=light-dark(#ff0000, #ededed);" parent="1" source="q7oZGvzG7qB7lyxZG7U--51" target="q7oZGvzG7qB7lyxZG7U--6" edge="1">
          <mxGeometry relative="1" as="geometry" />
        </mxCell>
        <mxCell id="q7oZGvzG7qB7lyxZG7U--51" value="" style="rhombus;whiteSpace=wrap;html=1;fontColor=#000000;fillColor=#ffffc0;strokeColor=#ff0000;" parent="1" vertex="1">
          <mxGeometry x="477.5" y="-100" width="55" height="40" as="geometry" />
        </mxCell>
        <mxCell id="q7oZGvzG7qB7lyxZG7U--76" style="edgeStyle=orthogonalEdgeStyle;rounded=0;orthogonalLoop=1;jettySize=auto;html=1;exitX=0.5;exitY=1;exitDx=0;exitDy=0;entryX=0.5;entryY=0;entryDx=0;entryDy=0;strokeColor=light-dark(#ff0000, #ededed);" parent="1" source="q7oZGvzG7qB7lyxZG7U--57" target="q7oZGvzG7qB7lyxZG7U--75" edge="1">
          <mxGeometry relative="1" as="geometry" />
        </mxCell>
        <mxCell id="q7oZGvzG7qB7lyxZG7U--57" value="Токен&lt;br&gt;верный?" style="rhombus;whiteSpace=wrap;html=1;fontColor=#000000;fillColor=#ffffc0;strokeColor=#ff0000;" parent="1" vertex="1">
          <mxGeometry x="460" y="80" width="90" height="50" as="geometry" />
        </mxCell>
        <mxCell id="q7oZGvzG7qB7lyxZG7U--58" value="no" style="edgeStyle=orthogonalEdgeStyle;html=1;align=left;verticalAlign=bottom;endArrow=open;endSize=8;strokeColor=#ff0000;rounded=0;entryX=0;entryY=0.5;entryDx=0;entryDy=0;" parent="1" source="q7oZGvzG7qB7lyxZG7U--57" target="q7oZGvzG7qB7lyxZG7U--63" edge="1">
          <mxGeometry x="-1" relative="1" as="geometry">
            <mxPoint x="650" y="110" as="targetPoint" />
          </mxGeometry>
        </mxCell>
        <mxCell id="q7oZGvzG7qB7lyxZG7U--70" style="edgeStyle=orthogonalEdgeStyle;rounded=0;orthogonalLoop=1;jettySize=auto;html=1;exitX=0.5;exitY=0;exitDx=0;exitDy=0;entryX=0.5;entryY=1;entryDx=0;entryDy=0;strokeColor=light-dark(#ff0000, #ededed);" parent="1" source="q7oZGvzG7qB7lyxZG7U--63" target="q7oZGvzG7qB7lyxZG7U--68" edge="1">
          <mxGeometry relative="1" as="geometry" />
        </mxCell>
        <mxCell id="q7oZGvzG7qB7lyxZG7U--72" value="Зарегистрированный пользователь" style="edgeLabel;html=1;align=center;verticalAlign=middle;resizable=0;points=[];" parent="q7oZGvzG7qB7lyxZG7U--70" vertex="1" connectable="0">
          <mxGeometry x="0.152" y="2" relative="1" as="geometry">
            <mxPoint as="offset" />
          </mxGeometry>
        </mxCell>
        <mxCell id="q7oZGvzG7qB7lyxZG7U--63" value="Регистрация" style="swimlane;fontStyle=1;align=center;verticalAlign=middle;childLayout=stackLayout;horizontal=1;startSize=30;horizontalStack=0;resizeParent=0;resizeLast=1;container=0;fontColor=#000000;collapsible=0;rounded=1;arcSize=30;strokeColor=#ff0000;fillColor=#ffffc0;swimlaneFillColor=#ffffc0;dropTarget=0;" parent="1" vertex="1">
          <mxGeometry x="640" y="75" width="160" height="60" as="geometry" />
        </mxCell>
        <mxCell id="q7oZGvzG7qB7lyxZG7U--64" value="entry/регистрация в системе" style="text;html=1;strokeColor=none;fillColor=none;align=center;verticalAlign=middle;spacingLeft=4;spacingRight=4;whiteSpace=wrap;overflow=hidden;rotatable=0;fontColor=#000000;" parent="q7oZGvzG7qB7lyxZG7U--63" vertex="1">
          <mxGeometry y="30" width="160" height="30" as="geometry" />
        </mxCell>
        <mxCell id="q7oZGvzG7qB7lyxZG7U--67" value="Аунтентификация" style="swimlane;fontStyle=1;align=center;verticalAlign=middle;childLayout=stackLayout;horizontal=1;startSize=30;horizontalStack=0;resizeParent=0;resizeLast=1;container=0;fontColor=#000000;collapsible=0;rounded=1;arcSize=30;strokeColor=#ff0000;fillColor=#ffffc0;swimlaneFillColor=#ffffc0;dropTarget=0;" parent="1" vertex="1">
          <mxGeometry x="640" y="-110" width="160" height="60" as="geometry" />
        </mxCell>
        <mxCell id="q7oZGvzG7qB7lyxZG7U--68" value="entry/выдача токена" style="text;html=1;strokeColor=none;fillColor=none;align=center;verticalAlign=middle;spacingLeft=4;spacingRight=4;whiteSpace=wrap;overflow=hidden;rotatable=0;fontColor=#000000;" parent="q7oZGvzG7qB7lyxZG7U--67" vertex="1">
          <mxGeometry y="30" width="160" height="30" as="geometry" />
        </mxCell>
        <mxCell id="q7oZGvzG7qB7lyxZG7U--71" style="edgeStyle=orthogonalEdgeStyle;rounded=0;orthogonalLoop=1;jettySize=auto;html=1;exitX=0;exitY=0;exitDx=0;exitDy=0;entryX=1;entryY=0.5;entryDx=0;entryDy=0;strokeColor=light-dark(#ff0000, #ededed);" parent="1" source="q7oZGvzG7qB7lyxZG7U--68" target="q7oZGvzG7qB7lyxZG7U--51" edge="1">
          <mxGeometry relative="1" as="geometry">
            <Array as="points">
              <mxPoint x="630" y="-80" />
              <mxPoint x="630" y="-80" />
            </Array>
          </mxGeometry>
        </mxCell>
        <mxCell id="q7oZGvzG7qB7lyxZG7U--74" value="JWT-токен" style="edgeLabel;html=1;align=center;verticalAlign=middle;resizable=0;points=[];" parent="q7oZGvzG7qB7lyxZG7U--71" vertex="1" connectable="0">
          <mxGeometry x="-0.0512" y="1" relative="1" as="geometry">
            <mxPoint x="-4" y="-11" as="offset" />
          </mxGeometry>
        </mxCell>
        <mxCell id="q7oZGvzG7qB7lyxZG7U--77" style="edgeStyle=orthogonalEdgeStyle;rounded=0;orthogonalLoop=1;jettySize=auto;html=1;exitX=0.5;exitY=1;exitDx=0;exitDy=0;entryX=0.5;entryY=0;entryDx=0;entryDy=0;strokeColor=light-dark(#ff0000, #ededed);" parent="1" source="q7oZGvzG7qB7lyxZG7U--75" target="q7oZGvzG7qB7lyxZG7U--11" edge="1">
          <mxGeometry relative="1" as="geometry" />
        </mxCell>
        <mxCell id="q7oZGvzG7qB7lyxZG7U--75" value="" style="rhombus;whiteSpace=wrap;html=1;fontColor=#000000;fillColor=#ffffc0;strokeColor=#ff0000;" parent="1" vertex="1">
          <mxGeometry x="477.5" y="160" width="55" height="40" as="geometry" />
        </mxCell>
        <mxCell id="q7oZGvzG7qB7lyxZG7U--80" style="edgeStyle=orthogonalEdgeStyle;rounded=0;orthogonalLoop=1;jettySize=auto;html=1;exitX=0;exitY=0;exitDx=0;exitDy=0;entryX=0;entryY=0.5;entryDx=0;entryDy=0;strokeColor=light-dark(#ff0000, #ededed);" parent="1" source="q7oZGvzG7qB7lyxZG7U--27" target="q7oZGvzG7qB7lyxZG7U--75" edge="1">
          <mxGeometry relative="1" as="geometry">
            <Array as="points">
              <mxPoint x="310" y="520" />
              <mxPoint x="310" y="180" />
            </Array>
          </mxGeometry>
        </mxCell>
        <mxCell id="q7oZGvzG7qB7lyxZG7U--83" value="Подтверждение оплаты" style="swimlane;fontStyle=1;align=center;verticalAlign=middle;childLayout=stackLayout;horizontal=1;startSize=30;horizontalStack=0;resizeParent=0;resizeLast=1;container=0;fontColor=#000000;collapsible=0;rounded=1;arcSize=30;strokeColor=#ff0000;fillColor=#ffffc0;swimlaneFillColor=#ffffc0;dropTarget=0;" parent="1" vertex="1">
          <mxGeometry x="520" y="1070" width="160" height="60" as="geometry" />
        </mxCell>
        <mxCell id="q7oZGvzG7qB7lyxZG7U--84" value="exit/чет по оплате" style="text;html=1;strokeColor=none;fillColor=none;align=center;verticalAlign=middle;spacingLeft=4;spacingRight=4;whiteSpace=wrap;overflow=hidden;rotatable=0;fontColor=#000000;" parent="q7oZGvzG7qB7lyxZG7U--83" vertex="1">
          <mxGeometry y="30" width="160" height="30" as="geometry" />
        </mxCell>
        <mxCell id="q7oZGvzG7qB7lyxZG7U--92" style="edgeStyle=orthogonalEdgeStyle;rounded=0;orthogonalLoop=1;jettySize=auto;html=1;exitX=0.5;exitY=1;exitDx=0;exitDy=0;entryX=0.5;entryY=0;entryDx=0;entryDy=0;strokeColor=light-dark(#ff0000, #ededed);" parent="1" source="q7oZGvzG7qB7lyxZG7U--90" target="q7oZGvzG7qB7lyxZG7U--83" edge="1">
          <mxGeometry relative="1" as="geometry" />
        </mxCell>
        <mxCell id="q7oZGvzG7qB7lyxZG7U--93" value="yes" style="edgeLabel;html=1;align=center;verticalAlign=middle;resizable=0;points=[];" parent="q7oZGvzG7qB7lyxZG7U--92" vertex="1" connectable="0">
          <mxGeometry x="-0.32" y="4" relative="1" as="geometry">
            <mxPoint x="6" y="-7" as="offset" />
          </mxGeometry>
        </mxCell>
        <mxCell id="q7oZGvzG7qB7lyxZG7U--99" style="edgeStyle=orthogonalEdgeStyle;rounded=0;orthogonalLoop=1;jettySize=auto;html=1;exitX=1;exitY=0.5;exitDx=0;exitDy=0;entryX=1;entryY=0.5;entryDx=0;entryDy=0;strokeColor=light-dark(#ff0000, #ededed);" parent="1" source="q7oZGvzG7qB7lyxZG7U--90" target="q7oZGvzG7qB7lyxZG7U--94" edge="1">
          <mxGeometry relative="1" as="geometry">
            <Array as="points">
              <mxPoint x="710" y="990" />
              <mxPoint x="710" y="810" />
            </Array>
          </mxGeometry>
        </mxCell>
        <mxCell id="q7oZGvzG7qB7lyxZG7U--100" value="no" style="edgeLabel;html=1;align=center;verticalAlign=middle;resizable=0;points=[];" parent="q7oZGvzG7qB7lyxZG7U--99" vertex="1" connectable="0">
          <mxGeometry x="-0.881" y="3" relative="1" as="geometry">
            <mxPoint x="-8" y="-7" as="offset" />
          </mxGeometry>
        </mxCell>
        <mxCell id="q7oZGvzG7qB7lyxZG7U--90" value="Оплата прошла успешно?" style="rhombus;whiteSpace=wrap;html=1;fontColor=#000000;fillColor=#ffffc0;strokeColor=#ff0000;" parent="1" vertex="1">
          <mxGeometry x="530" y="950" width="140" height="80" as="geometry" />
        </mxCell>
        <mxCell id="q7oZGvzG7qB7lyxZG7U--98" style="edgeStyle=orthogonalEdgeStyle;rounded=0;orthogonalLoop=1;jettySize=auto;html=1;entryX=0.5;entryY=0;entryDx=0;entryDy=0;strokeColor=light-dark(#ff0000, #ededed);" parent="1" source="q7oZGvzG7qB7lyxZG7U--94" target="q7oZGvzG7qB7lyxZG7U--46" edge="1">
          <mxGeometry relative="1" as="geometry" />
        </mxCell>
        <mxCell id="q7oZGvzG7qB7lyxZG7U--94" value="" style="rhombus;whiteSpace=wrap;html=1;fontColor=#000000;fillColor=#ffffc0;strokeColor=#ff0000;" parent="1" vertex="1">
          <mxGeometry x="572.5" y="790" width="55" height="40" as="geometry" />
        </mxCell>
        <mxCell id="q7oZGvzG7qB7lyxZG7U--95" style="edgeStyle=orthogonalEdgeStyle;rounded=0;orthogonalLoop=1;jettySize=auto;html=1;exitX=0.5;exitY=1;exitDx=0;exitDy=0;entryX=0.5;entryY=0;entryDx=0;entryDy=0;strokeColor=light-dark(#ff0000, #ededed);" parent="1" source="q7oZGvzG7qB7lyxZG7U--44" target="q7oZGvzG7qB7lyxZG7U--94" edge="1">
          <mxGeometry relative="1" as="geometry" />
        </mxCell>
        <mxCell id="q7oZGvzG7qB7lyxZG7U--97" value="Информация о завершении консультации" style="edgeLabel;html=1;align=center;verticalAlign=middle;resizable=0;points=[];" parent="q7oZGvzG7qB7lyxZG7U--95" vertex="1" connectable="0">
          <mxGeometry x="-0.25" y="2" relative="1" as="geometry">
            <mxPoint as="offset" />
          </mxGeometry>
        </mxCell>
        <mxCell id="q7oZGvzG7qB7lyxZG7U--101" value="" style="ellipse;html=1;shape=endState;fillColor=#000000;strokeColor=#ff0000;" parent="1" vertex="1">
          <mxGeometry x="585" y="1170" width="30" height="30" as="geometry" />
        </mxCell>
        <mxCell id="q7oZGvzG7qB7lyxZG7U--102" style="edgeStyle=orthogonalEdgeStyle;rounded=0;orthogonalLoop=1;jettySize=auto;html=1;exitX=0.5;exitY=1;exitDx=0;exitDy=0;entryX=0.5;entryY=0;entryDx=0;entryDy=0;strokeColor=light-dark(#ff0000, #ededed);" parent="1" source="q7oZGvzG7qB7lyxZG7U--84" target="q7oZGvzG7qB7lyxZG7U--101" edge="1">
          <mxGeometry relative="1" as="geometry" />
        </mxCell>
        <mxCell id="q7oZGvzG7qB7lyxZG7U--103" value="Чек" style="edgeLabel;html=1;align=center;verticalAlign=middle;resizable=0;points=[];" parent="q7oZGvzG7qB7lyxZG7U--102" vertex="1" connectable="0">
          <mxGeometry x="-0.2" y="2" relative="1" as="geometry">
            <mxPoint as="offset" />
          </mxGeometry>
        </mxCell>
      </root>
    </mxGraphModel>
  </diagram>
</mxfile>
